<svg version="1.1" xmlns="http://www.w3.org/2000/svg" width="1024" height="1024" viewBox="0 0 1024 1024">
<path fill="#61dafb" d="M1024.217 509.6c0-67.835-84.951-132.123-215.195-171.989 30.055-132.748 16.698-238.362-42.163-272.175-13.568-7.932-29.429-11.689-46.755-11.689v46.546c9.602 0 17.324 1.878 23.795 5.426 28.387 16.28 40.701 78.271 31.099 158.005-2.296 19.62-6.052 40.283-10.646 61.365-40.91-10.020-85.577-17.741-132.539-22.751-28.178-38.615-57.399-73.679-86.83-104.362 68.044-63.242 131.914-97.892 175.329-97.892v-46.546c-57.399 0-132.539 40.91-208.514 111.876-75.975-70.549-151.116-111.042-208.514-111.042v46.546c43.206 0 107.283 34.439 175.329 97.266-29.222 30.682-58.443 65.538-86.203 104.154-47.171 5.009-91.838 12.733-132.748 22.96-4.8-20.871-8.35-41.119-10.854-60.53-9.81-79.731 2.296-141.723 30.473-158.212 6.261-3.756 14.402-5.426 24.003-5.426v-46.546c-17.533 0-33.395 3.756-47.171 11.689-58.651 33.813-71.8 139.219-41.536 271.549-129.827 40.075-214.359 104.154-214.359 171.78 0 67.835 84.951 132.123 215.195 171.989-30.055 132.748-16.698 238.362 42.163 272.175 13.568 7.932 29.429 11.689 46.962 11.689 57.399 0 132.539-40.91 208.514-111.876 75.975 70.549 151.116 111.042 208.514 111.042 17.533 0 33.395-3.756 47.171-11.689 58.651-33.813 71.8-139.219 41.536-271.549 129.409-39.866 213.941-104.154 213.941-171.78zM752.459 370.381c-7.723 26.926-17.324 54.687-28.178 82.446-8.558-16.698-17.533-33.395-27.343-50.093-9.602-16.698-19.827-32.978-30.055-48.841 29.638 4.384 58.234 9.81 85.577 16.489zM656.863 592.672c-16.28 28.178-32.978 54.895-50.302 79.731-31.099 2.714-62.617 4.175-94.342 4.175-31.517 0-63.035-1.461-93.926-3.965-17.324-24.838-34.231-51.345-50.511-79.315-15.863-27.343-30.266-55.104-43.415-83.072 12.942-27.969 27.552-55.939 43.206-83.281 16.28-28.178 32.978-54.895 50.302-79.731 31.099-2.714 62.617-4.175 94.342-4.175 31.517 0 63.035 1.461 93.926 3.965 17.324 24.838 34.231 51.345 50.511 79.315 15.863 27.343 30.266 55.104 43.415 83.072-13.149 27.969-27.552 55.939-43.206 83.281zM724.281 565.538c11.272 27.969 20.871 55.939 28.804 83.072-27.343 6.678-56.146 12.316-85.994 16.698 10.228-16.072 20.455-32.561 30.055-49.467 9.602-16.698 18.576-33.605 27.134-50.302zM512.635 788.246c-19.411-20.038-38.824-42.371-58.025-66.792 18.785 0.835 37.987 1.461 57.399 1.461 19.62 0 39.031-0.418 58.025-1.461-18.785 24.421-38.197 46.755-57.399 66.792zM357.345 665.306c-29.638-4.384-58.234-9.81-85.577-16.489 7.723-26.926 17.324-54.687 28.178-82.446 8.558 16.698 17.533 33.395 27.343 50.093s19.827 32.978 30.055 48.841zM511.591 230.954c19.411 20.038 38.824 42.371 58.025 66.792-18.785-0.835-37.987-1.461-57.399-1.461-19.62 0-39.031 0.418-58.025 1.461 18.785-24.421 38.197-46.755 57.399-66.792zM357.136 353.891c-10.228 16.072-20.455 32.561-30.055 49.467-9.602 16.698-18.576 33.395-27.134 50.093-11.272-27.969-20.871-55.939-28.804-83.072 27.343-6.47 56.146-12.105 85.994-16.489zM168.241 615.213c-73.888-31.517-121.686-72.844-121.686-105.613s47.797-74.306 121.686-105.613c17.95-7.723 37.571-14.61 57.816-21.080 11.898 40.91 27.552 83.49 46.962 127.113-19.202 43.415-34.648 85.786-46.337 126.487-20.664-6.47-40.283-13.568-58.443-21.289zM280.535 913.479c-28.387-16.28-40.701-78.271-31.099-158.005 2.296-19.62 6.052-40.283 10.646-61.365 40.91 10.020 85.577 17.741 132.539 22.751 28.178 38.615 57.399 73.679 86.83 104.362-68.044 63.242-131.914 97.892-175.329 97.892-9.393-0.208-17.324-2.088-23.586-5.635zM775.626 754.432c9.81 79.731-2.296 141.723-30.473 158.212-6.261 3.756-14.402 5.426-24.003 5.426-43.206 0-107.283-34.439-175.329-97.266 29.222-30.682 58.443-65.538 86.203-104.154 47.171-5.009 91.838-12.733 132.748-22.96 4.8 21.080 8.558 41.327 10.854 60.739zM855.985 615.213c-17.95 7.723-37.571 14.61-57.816 21.080-11.898-40.91-27.552-83.49-46.962-127.113 19.202-43.415 34.648-85.786 46.337-126.487 20.664 6.47 40.283 13.568 58.651 21.289 73.888 31.517 121.686 72.844 121.686 105.613-0.208 32.769-48.006 74.306-121.895 105.613z"></path>
<path fill="#61dafb" d="M607.396 509.6c0 52.68-42.706 95.386-95.386 95.386s-95.386-42.706-95.386-95.386c0-52.68 42.706-95.386 95.386-95.386s95.386 42.706 95.386 95.386z"></path>
</svg>
